<svg width="18" height="18" viewBox="0 0 18 18" fill="none" xmlns="http://www.w3.org/2000/svg">
<path d="M9 4C2.9264 4 1.10105 8.72643 1.08434 8.77429L1 9L1.08355 9.22571C1.10105 9.27357 2.9264 14 9 14C15.0736 14 16.8989 9.27357 16.9157 9.22571L17 9L16.9164 8.77429C16.8989 8.72643 15.0736 4 9 4ZM9 11.8571C7.24468 11.8571 5.81719 10.5757 5.81719 9C5.81719 7.42429 7.24468 6.14286 9 6.14286C10.7553 6.14286 12.1828 7.42429 12.1828 9C12.1828 10.5757 10.7553 11.8571 9 11.8571Z" fill="white"/>
<path d="M9 7C7.916 7 7 7.916 7 9C7 10.084 7.916 11 9 11C10.084 11 11 10.084 11 9C11 7.916 10.084 7 9 7Z" fill="white"/>
</svg>
