<svg width="20" height="20" viewBox="0 0 20 20" fill="none" xmlns="http://www.w3.org/2000/svg">
<path fill-rule="evenodd" clip-rule="evenodd" d="M1 4.53846C1 3.13651 2.13651 2 3.53846 2C4.94042 2 6.07692 3.13651 6.07692 4.53846C6.07692 5.70041 5.29623 6.68002 4.23077 6.98137V17.4615C4.23077 17.8439 3.92081 18.1538 3.53846 18.1538C3.15611 18.1538 2.84615 17.8439 2.84615 17.4615V6.98137C1.78069 6.68002 1 5.70041 1 4.53846ZM3.53846 3.38462C2.90121 3.38462 2.38462 3.90121 2.38462 4.53846C2.38462 5.17571 2.90121 5.69231 3.53846 5.69231C4.17571 5.69231 4.69231 5.17571 4.69231 4.53846C4.69231 3.90121 4.17571 3.38462 3.53846 3.38462ZM10 2C10.3824 2 10.6923 2.30996 10.6923 2.69231V13.1725C11.7578 13.4738 12.5385 14.4534 12.5385 15.6154C12.5385 17.0174 11.402 18.1538 10 18.1538C8.59802 18.1538 7.46154 17.0174 7.46154 15.6154C7.46154 14.4534 8.24221 13.4738 9.30769 13.1725V2.69231C9.30769 2.30996 9.61765 2 10 2ZM16.4615 2C16.8439 2 17.1538 2.30996 17.1538 2.69231V7.63401C18.2193 7.93535 19 8.91495 19 10.0769C19 11.2389 18.2193 12.2185 17.1538 12.5198V17.4615C17.1538 17.8439 16.8439 18.1538 16.4615 18.1538C16.0792 18.1538 15.7692 17.8439 15.7692 17.4615V12.5198C14.7038 12.2185 13.9231 11.2389 13.9231 10.0769C13.9231 8.91495 14.7038 7.93535 15.7692 7.63401V2.69231C15.7692 2.30996 16.0792 2 16.4615 2ZM16.4615 8.92308C15.8243 8.92308 15.3077 9.43964 15.3077 10.0769C15.3077 10.7142 15.8243 11.2308 16.4615 11.2308C17.0988 11.2308 17.6154 10.7142 17.6154 10.0769C17.6154 9.43964 17.0988 8.92308 16.4615 8.92308ZM10 14.4615C9.36272 14.4615 8.84615 14.9781 8.84615 15.6154C8.84615 16.2527 9.36272 16.7692 10 16.7692C10.6373 16.7692 11.1538 16.2527 11.1538 15.6154C11.1538 14.9781 10.6373 14.4615 10 14.4615Z" fill="#795DA7"/>
</svg>
