<svg width="18" height="18" viewBox="0 0 18 18" fill="none" xmlns="http://www.w3.org/2000/svg">
<path d="M13.8015 10.4774C13.7704 10.4774 13.7394 10.4725 13.7096 10.4629L10.6634 9.4806C10.6193 9.46624 10.5786 9.44185 10.5442 9.40911C10.5099 9.37637 10.4826 9.33607 10.4644 9.29101C10.4461 9.24595 10.4373 9.1972 10.4386 9.14816C10.4398 9.09911 10.4511 9.05094 10.4716 9.00699C10.8612 8.17877 10.8396 7.28785 10.6878 6.20513C10.6726 6.09659 10.6548 5.984 10.6368 5.86771C10.5366 5.2296 10.4117 4.4361 10.5851 3.58496C10.9341 1.87391 12.251 0.795566 13.7308 1.03254C14.8518 1.21288 16.0378 2.50695 15.9991 4.28407C15.9081 8.4953 14.0932 10.3139 14.0158 10.389C13.9569 10.4464 13.8801 10.4774 13.8015 10.4774ZM11.4826 14.7182C11.2898 14.7181 11.0982 14.6872 10.9141 14.6266C10.4244 14.4651 10.023 14.1108 9.7843 13.6284C9.54558 13.1461 9.4974 12.5939 9.64893 12.0735L10.0332 10.7541C10.0581 10.6687 10.1138 10.5974 10.1882 10.5557C10.2626 10.5141 10.3494 10.5055 10.4297 10.532L13.4908 11.5402C13.5711 11.5667 13.6382 11.626 13.6774 11.7051C13.7166 11.7841 13.7246 11.8765 13.6998 11.9619L13.3152 13.2809C13.1954 13.698 12.9525 14.063 12.6225 14.3219C12.2924 14.5808 11.8927 14.7197 11.4826 14.7182ZM4.19848 12.7594C4.11907 12.7594 4.04257 12.7277 3.98417 12.6704C3.90682 12.5953 2.0919 10.7767 2.00092 6.56514C1.96225 4.78836 3.1482 3.49462 4.26917 3.31428C5.75059 3.07899 7.06589 4.15564 7.41492 5.86669C7.58833 6.71784 7.46342 7.51134 7.36325 8.14911C7.34486 8.2654 7.32742 8.37833 7.31221 8.48687C7.16036 9.56993 7.1388 10.4605 7.52841 11.2887C7.54921 11.3326 7.5607 11.3808 7.56209 11.43C7.56348 11.4791 7.55472 11.528 7.53644 11.5731C7.51815 11.6183 7.49079 11.6586 7.45627 11.6913C7.42174 11.724 7.3809 11.7482 7.33662 11.7623L4.29041 12.7449C4.26064 12.7547 4.22964 12.7596 4.19848 12.7594ZM6.51745 17C6.1073 17.0015 5.70761 16.8625 5.37754 16.6036C5.04746 16.3448 4.80456 15.9798 4.68478 15.5627L4.30024 14.2436C4.28775 14.2014 4.28325 14.1569 4.28701 14.1128C4.29076 14.0686 4.30269 14.0257 4.32211 13.9865C4.34153 13.9473 4.36806 13.9126 4.40016 13.8844C4.43226 13.8561 4.4693 13.8349 4.50915 13.8219L7.57026 12.8137C7.65055 12.7873 7.73744 12.7958 7.81181 12.8375C7.88618 12.8791 7.94194 12.9505 7.96684 13.0359L8.35107 14.3549C8.50292 14.8757 8.45473 15.4282 8.2157 15.9102C7.97667 16.3922 7.57501 16.7468 7.08586 16.908C6.90184 16.969 6.7102 17 6.51745 17Z" fill="white"/>
</svg>
