<svg width="38" height="38" viewBox="0 0 38 38" fill="none" xmlns="http://www.w3.org/2000/svg">
<rect x="1" y="1" width="36" height="36" rx="9" stroke="#FC8230" stroke-width="2"/>
<path d="M16 20.0031H24.8922L22.8484 22.0984L24.25 23.5L28.75 19L24.25 14.5L22.7969 15.9016L24.8922 17.9969H16V20.0031Z" fill="#FC8230"/>
<path d="M18.9859 26.7484C16.9187 26.7484 14.9781 25.9422 13.5156 24.4797C12.0531 23.0172 11.2516 21.0719 11.2516 19C11.2516 16.9328 12.0578 14.9828 13.5156 13.5203C14.9781 12.0578 16.9187 11.2516 18.9859 11.2516C21.0484 11.2516 22.9844 12.0531 24.4469 13.5109L25.8672 12.0906C25.4688 11.6969 25.0328 11.3313 24.5687 11.0031C22.9234 9.85938 20.9969 9.25 18.9859 9.25C13.6187 9.25 9.25 13.6234 9.25 19C9.25 24.3766 13.6187 28.75 18.9859 28.75C20.9969 28.75 22.9234 28.1406 24.5641 26.9922C25.0328 26.6641 25.4641 26.3031 25.8625 25.9047L24.4469 24.4891C22.9891 25.9469 21.0484 26.7484 18.9859 26.7484Z" fill="#FC8230"/>
<path d="M28.0002 19.0398L27.9604 19L28.0002 18.9602L28.0399 19L28.0002 19.0398Z" fill="#FC8230"/>
</svg>
